<?xml version="1.0" encoding="utf-8"?>
<!-- Generator: Adobe Illustrator 16.0.3, SVG Export Plug-In . SVG Version: 6.00 Build 0)  -->
<!DOCTYPE svg PUBLIC "-//W3C//DTD SVG 1.1//EN" "http://www.w3.org/Graphics/SVG/1.1/DTD/svg11.dtd">
<svg version="1.1"
	 id="svg5071" inkscape:version="0.48.4 r9939" sodipodi:docname="Tobu Skytree Line (TS) symbol.svg" xmlns:inkscape="http://www.inkscape.org/namespaces/inkscape" xmlns:svg="http://www.w3.org/2000/svg" xmlns:sodipodi="http://sodipodi.sourceforge.net/DTD/sodipodi-0.dtd" xmlns:cc="http://creativecommons.org/ns#" xmlns:rdf="http://www.w3.org/1999/02/22-rdf-syntax-ns#" xmlns:dc="http://purl.org/dc/elements/1.1/"
	 xmlns="http://www.w3.org/2000/svg" xmlns:xlink="http://www.w3.org/1999/xlink" x="0px" y="0px" width="400px" height="400.135px"
	 viewBox="0 0 400 400.135" enable-background="new 0 0 400 400.135" xml:space="preserve">
<sodipodi:namedview  id="namedview4092" inkscape:current-layer="g5106" inkscape:pageopacity="0" inkscape:window-maximized="0" inkscape:window-y="93" inkscape:window-width="769" inkscape:window-height="480" inkscape:pageshadow="2" inkscape:window-x="22" pagecolor="#ffffff" borderopacity="1" bordercolor="#666666" gridtolerance="10" objecttolerance="10" showgrid="false" guidetolerance="10" inkscape:cx="-34.824512" inkscape:zoom="0.58980214" inkscape:cy="200.06709">
	</sodipodi:namedview>
<path fill="#FFFFFF" d="M288.922,355.666c36.737,0,66.646-29.913,66.646-66.708V111.181c0-36.795-29.909-66.708-66.646-66.708
	H111.089c-36.74,0-66.597,29.913-66.597,66.708v177.777c0,36.795,29.856,66.708,66.597,66.708H288.922L288.922,355.666z"/>
<path fill="#006CBA" d="M111.141-0.052C49.928-0.052,0.026,49.879,0.026,111.091v177.928c0,61.27,49.902,111.115,111.115,111.115
	h177.955c61.272,0,111.173-49.847,111.173-111.115V111.091c0-61.212-49.899-111.144-111.173-111.144L111.141-0.052L111.141-0.052z
	 M44.471,289.019V111.091c0-36.716,29.897-66.67,66.67-66.67h177.955c36.773,0,66.613,29.954,66.613,66.67v177.928
	c0,36.717-29.84,66.727-66.613,66.727H111.141C74.369,355.745,44.471,325.735,44.471,289.019"/>
<polygon points="122.566,146.785 78.005,146.785 78.005,122.288 198.386,122.288 198.386,146.785 153.769,146.785 153.769,277.879 
	122.566,277.879 "/>
<path d="M301.771,150.792c-9.775-4.234-20.688-6.735-31.603-6.735c-10.687,0-24.552,4.718-24.552,21.712
	c0,26.969,68.259,15.601,68.259,67.72c0,34.156-26.995,47.115-58.428,47.115c-16.937,0-24.554-2.271-39.898-6.078l2.843-28.021
	c10.685,5.799,23.019,9.549,35.293,9.549c11.824,0,27.51-6.023,27.51-20.121c0-29.608-68.146-17.334-68.146-68.828
	c0-34.813,26.997-47.487,54.508-47.487c13.299,0,25.689,1.733,37.229,5.569L301.771,150.792z"/>
</svg>
